HIERARCHY
ROOT Root
{
  OFFSET 0.0 0.0 0.0
  CHANNELS 6 Xposition Yposition Zposition Zrotation Yrotation Xrotation
  JOINT Hips
  {
    OFFSET 0.0 100.0 0.0
    CHANNELS 6 Xposition Yposition Zposition Zrotation Yrotation Xrotation
    JOINT Spine1
    {
      OFFSET -0.013727 5.003763 -0.053727
      CHANNELS 3 Zrotation Yrotation Xrotation
      JOINT Spine2
      {
        OFFSET -0.0 7.125301 -0.029825
        CHANNELS 3 Zrotation Yrotation Xrotation
        JOINT Chest
        {
          OFFSET -1e-06 7.550063 -0.815971
          CHANNELS 3 Zrotation Yrotation Xrotation
          JOINT Neck1
          {
            OFFSET -0.181677 26.311295 -0.553348
            CHANNELS 3 Zrotation Yrotation Xrotation
            JOINT Neck2
            {
              OFFSET -3e-06 7.709397 2.302585
              CHANNELS 3 Zrotation Yrotation Xrotation
              JOINT Head
              {
                OFFSET -5e-06 6.128916 1.953709
                CHANNELS 3 Zrotation Yrotation Xrotation
                JOINT HeadEnd
                {
                  OFFSET 0.003598 16.065403 -1.835379
                  CHANNELS 3 Zrotation Yrotation Xrotation
                }
                JOINT Jaw
                {
                  OFFSET 0.002637 0.475592 3.094941
                  CHANNELS 3 Zrotation Yrotation Xrotation
                }
                JOINT LeftEye
                {
                  OFFSET 3.206381 5.380205 7.586883
                  CHANNELS 3 Zrotation Yrotation Xrotation
                }
                JOINT RightEye
                {
                  OFFSET -3.22244 5.361869 7.558234
                  CHANNELS 3 Zrotation Yrotation Xrotation
                }
              }
            }
          }
          JOINT LeftShoulder
          {
            OFFSET 1.621652 23.237164 5.113413
            CHANNELS 3 Zrotation Yrotation Xrotation
            JOINT LeftArm
            {
              OFFSET 14.919846 2e-06 -5.502326
              CHANNELS 3 Zrotation Yrotation Xrotation
              JOINT LeftForeArm
              {
                OFFSET 28.739307 0.0 -0.002588
                CHANNELS 3 Zrotation Yrotation Xrotation
                JOINT LeftHand
                {
                  OFFSET 27.093981 -1e-06 0.002609
                  CHANNELS 3 Zrotation Yrotation Xrotation
                  JOINT LeftHandThumb1
                  {
                    OFFSET 2.276482 -1.392045 3.191413
                    CHANNELS 3 Zrotation Yrotation Xrotation
                    JOINT LeftHandThumb2
                    {
                      OFFSET 4.012836 -1.828127 1.641654
                      CHANNELS 3 Zrotation Yrotation Xrotation
                      JOINT LeftHandThumb3
                      {
                        OFFSET 2.798515 0.0 -3e-06
                        CHANNELS 3 Zrotation Yrotation Xrotation
                        JOINT LeftHandThumbEnd
                        {
                          OFFSET 3.180793 -4e-06 4e-06
                          CHANNELS 3 Zrotation Yrotation Xrotation
                        }
                      }
                    }
                  }
                  JOINT LeftHandIndex1
                  {
                    OFFSET 3.247555 -0.531998 2.296169
                    CHANNELS 3 Zrotation Yrotation Xrotation
                    JOINT LeftHandIndex2
                    {
                      OFFSET 6.364578 0.01206 0.1786
                      CHANNELS 3 Zrotation Yrotation Xrotation
                      JOINT LeftHandIndex3
                      {
                        OFFSET 3.662364 0.0 0.0
                        CHANNELS 3 Zrotation Yrotation Xrotation
                        JOINT LeftHandIndex4
                        {
                          OFFSET 2.329242 4e-06 4e-06
                          CHANNELS 3 Zrotation Yrotation Xrotation
                          JOINT LeftHandIndexEnd
                          {
                            OFFSET 2.759615 -0.180537 -0.113024
                            CHANNELS 3 Zrotation Yrotation Xrotation
                          }
                        }
                      }
                    }
                  }
                  JOINT LeftHandMiddle1
                  {
                    OFFSET 3.163495 0.240981 1.000332
                    CHANNELS 3 Zrotation Yrotation Xrotation
                    JOINT LeftHandMiddle2
                    {
                      OFFSET 6.19078 -0.259278 -1.002548
                      CHANNELS 3 Zrotation Yrotation Xrotation
                      JOINT LeftHandMiddle3
                      {
                        OFFSET 4.35652 -4e-06 -1e-06
                        CHANNELS 3 Zrotation Yrotation Xrotation
                        JOINT LeftHandMiddle4
                        {
                          OFFSET 2.996877 -8e-06 0.0
                          CHANNELS 3 Zrotation Yrotation Xrotation
                          JOINT LeftHandMiddleEnd
                          {
                            OFFSET 2.304287 -0.294569 -0.031741
                            CHANNELS 3 Zrotation Yrotation Xrotation
                          }
                        }
                      }
                    }
                  }
                  JOINT LeftHandRing1
                  {
                    OFFSET 2.882643 -0.053652 -0.322543
                    CHANNELS 3 Zrotation Yrotation Xrotation
                    JOINT LeftHandRing2
                    {
                      OFFSET 5.854541 -0.486202 -1.373841
                      CHANNELS 3 Zrotation Yrotation Xrotation
                      JOINT LeftHandRing3
                      {
                        OFFSET 4.350578 0.0 3e-06
                        CHANNELS 3 Zrotation Yrotation Xrotation
                        JOINT LeftHandRing4
                        {
                          OFFSET 2.651321 7e-06 2e-06
                          CHANNELS 3 Zrotation Yrotation Xrotation
                          JOINT LeftHandRingEnd
                          {
                            OFFSET 1.936105 0.077687 -7.1e-05
                            CHANNELS 3 Zrotation Yrotation Xrotation
                          }
                        }
                      }
                    }
                  }
                  JOINT LeftHandPinky1
                  {
                    OFFSET 2.8655 -0.310005 -1.600378
                    CHANNELS 3 Zrotation Yrotation Xrotation
                    JOINT LeftHandPinky2
                    {
                      OFFSET 5.087849 -1.331141 -1.77123
                      CHANNELS 3 Zrotation Yrotation Xrotation
                      JOINT LeftHandPinky3
                      {
                        OFFSET 3.070974 4e-06 0.0
                        CHANNELS 3 Zrotation Yrotation Xrotation
                        JOINT LeftHandPinky4
                        {
                          OFFSET 1.549672 0.0 1e-06
                          CHANNELS 3 Zrotation Yrotation Xrotation
                          JOINT LeftHandPinkyEnd
                          {
                            OFFSET 1.944893 -0.157802 0.057219
                            CHANNELS 3 Zrotation Yrotation Xrotation
                          }
                        }
                      }
                    }
                  }
                }
              }
            }
          }
          JOINT RightShoulder
          {
            OFFSET -1.380118 23.180309 5.214158
            CHANNELS 3 Zrotation Yrotation Xrotation
            JOINT RightArm
            {
              OFFSET -15.037196 1.2e-05 -5.545604
              CHANNELS 3 Zrotation Yrotation Xrotation
              JOINT RightForeArm
              {
                OFFSET -28.736639 2e-06 -0.002597
                CHANNELS 3 Zrotation Yrotation Xrotation
                JOINT RightHand
                {
                  OFFSET -27.133619 -0.0 0.002613
                  CHANNELS 3 Zrotation Yrotation Xrotation
                  JOINT RightHandThumb1
                  {
                    OFFSET -2.274032 -1.383988 3.163127
                    CHANNELS 3 Zrotation Yrotation Xrotation
                    JOINT RightHandThumb2
                    {
                      OFFSET -4.011429 -1.827466 1.640914
                      CHANNELS 3 Zrotation Yrotation Xrotation
                      JOINT RightHandThumb3
                      {
                        OFFSET -2.794935 -4e-06 -3e-06
                        CHANNELS 3 Zrotation Yrotation Xrotation
                        JOINT RightHandThumbEnd
                        {
                          OFFSET -3.183852 4e-06 1e-06
                          CHANNELS 3 Zrotation Yrotation Xrotation
                        }
                      }
                    }
                  }
                  JOINT RightHandIndex1
                  {
                    OFFSET -3.253266 -0.520057 2.282866
                    CHANNELS 3 Zrotation Yrotation Xrotation
                    JOINT RightHandIndex2
                    {
                      OFFSET -6.341917 0.012471 0.178266
                      CHANNELS 3 Zrotation Yrotation Xrotation
                      JOINT RightHandIndex3
                      {
                        OFFSET -3.654871 -8e-06 -0.0
                        CHANNELS 3 Zrotation Yrotation Xrotation
                        JOINT RightHandIndex4
                        {
                          OFFSET -2.327586 0.0 1e-06
                          CHANNELS 3 Zrotation Yrotation Xrotation
                          JOINT RightHandIndexEnd
                          {
                            OFFSET -2.76179 -0.180656 -0.113078
                            CHANNELS 3 Zrotation Yrotation Xrotation
                          }
                        }
                      }
                    }
                  }
                  JOINT RightHandMiddle1
                  {
                    OFFSET -3.168106 0.246593 1.00103
                    CHANNELS 3 Zrotation Yrotation Xrotation
                    JOINT RightHandMiddle2
                    {
                      OFFSET -6.180828 -0.258836 -1.000895
                      CHANNELS 3 Zrotation Yrotation Xrotation
                      JOINT RightHandMiddle3
                      {
                        OFFSET -4.348901 0.0 -0.0
                        CHANNELS 3 Zrotation Yrotation Xrotation
                        JOINT RightHandMiddle4
                        {
                          OFFSET -3.00024 -4e-06 -2e-06
                          CHANNELS 3 Zrotation Yrotation Xrotation
                          JOINT RightHandMiddleEnd
                          {
                            OFFSET -2.30252 -0.29437 -0.031706
                            CHANNELS 3 Zrotation Yrotation Xrotation
                          }
                        }
                      }
                    }
                  }
                  JOINT RightHandRing1
                  {
                    OFFSET -2.88569 -0.067952 -0.308858
                    CHANNELS 3 Zrotation Yrotation Xrotation
                    JOINT RightHandRing2
                    {
                      OFFSET -5.854198 -0.48613 -1.373731
                      CHANNELS 3 Zrotation Yrotation Xrotation
                      JOINT RightHandRing3
                      {
                        OFFSET -4.33881 -4e-06 -0.0
                        CHANNELS 3 Zrotation Yrotation Xrotation
                        JOINT RightHandRing4
                        {
                          OFFSET -2.654903 -4e-06 4e-06
                          CHANNELS 3 Zrotation Yrotation Xrotation
                          JOINT RightHandRingEnd
                          {
                            OFFSET -1.933568 0.077527 -5.2e-05
                            CHANNELS 3 Zrotation Yrotation Xrotation
                          }
                        }
                      }
                    }
                  }
                  JOINT RightHandPinky1
                  {
                    OFFSET -2.866425 -0.342796 -1.584145
                    CHANNELS 3 Zrotation Yrotation Xrotation
                    JOINT RightHandPinky2
                    {
                      OFFSET -5.091371 -1.332055 -1.772385
                      CHANNELS 3 Zrotation Yrotation Xrotation
                      JOINT RightHandPinky3
                      {
                        OFFSET -3.062664 -4e-06 1e-06
                        CHANNELS 3 Zrotation Yrotation Xrotation
                        JOINT RightHandPinky4
                        {
                          OFFSET -1.546529 4e-06 -2e-06
                          CHANNELS 3 Zrotation Yrotation Xrotation
                          JOINT RightHandPinkyEnd
                          {
                            OFFSET -1.945119 -0.157718 0.057211
                            CHANNELS 3 Zrotation Yrotation Xrotation
                          }
                        }
                      }
                    }
                  }
                }
              }
            }
          }
        }
      }
    }
    JOINT LeftLeg
    {
      OFFSET 10.043214 -8.434526 2.595655
      CHANNELS 3 Zrotation Yrotation Xrotation
      JOINT LeftShin
      {
        OFFSET -1e-06 -43.221752 -0.802913
        CHANNELS 3 Zrotation Yrotation Xrotation
        JOINT LeftFoot
        {
          OFFSET 1e-06 -42.155094 -3.481523
          CHANNELS 3 Zrotation Yrotation Xrotation
          JOINT LeftToeBase
          {
            OFFSET 0.0 -5.059472 13.231529
            CHANNELS 3 Zrotation Yrotation Xrotation
            JOINT LeftToeEnd
            {
              OFFSET -0.009607 -1.647619 6.513017
              CHANNELS 3 Zrotation Yrotation Xrotation
            }
          }
        }
      }
    }
    JOINT RightLeg
    {
      OFFSET -10.047278 -8.29526 2.620317
      CHANNELS 3 Zrotation Yrotation Xrotation
      JOINT RightShin
      {
        OFFSET 1e-06 -43.362206 -0.805556
        CHANNELS 3 Zrotation Yrotation Xrotation
        JOINT RightFoot
        {
          OFFSET 2e-06 -42.117393 -3.478398
          CHANNELS 3 Zrotation Yrotation Xrotation
          JOINT RightToeBase
          {
            OFFSET -0.0 -5.079609 13.284196
            CHANNELS 3 Zrotation Yrotation Xrotation
            JOINT RightToeEnd
            {
              OFFSET 0.009532 -1.634378 6.460591
              CHANNELS 3 Zrotation Yrotation Xrotation
            }
          }
        }
      }
    }
  }
}
MOTION
Frames: 4
Frame Time: 0.03333333333333333
0.0 0.0 0.0 0.0 -0.0 0.0 0.66249 98.659492 -0.439629 0.569004 -0.817521 -4.842981 -0.761646 0.080673 -1.896616 -0.833361 0.210339 -5.503541 -3.281559 -1.972275 13.594136 15.440809 -4.060246 7.453084 -1.318788 -2.601185 -3.751176 13.359331 -8.273293 -7.897134 7.8e-05 -2.2e-05 6e-06 -0.138312 0.171189 -0.012051 0.616383 -3.484824 -10.682831 -0.878961 3.820481 -10.712708 -18.910143 -3.632571 14.691122 -51.845837 -12.34209 19.094854 0.133072 -24.449495 -0.102825 2.439705 -0.892908 -7.267789 -5.882106 9.861284 0.70259 -10.936872 -0.360574 7.156207 0.0 8.774824 1e-06 -15.7931 18.229475 6.315982 -1.844033 2.498505 -2.507277 -10.163601 4.678945 4.621108 -20.976023 -4e-06 2e-06 -21.226286 2.451698 -3.593999 2e-06 -5e-06 0.0 -1.362681 2.240798 -0.746323 -21.334915 0.58491 3.008325 -13.821215 -2e-06 2e-06 -23.887175 -0.249078 -0.839482 -60.374168 2.567737 -1.059874 -0.294026 1.679688 0.833256 -14.218209 0.093215 1.300581 -34.212051 -0.287563 0.96717 -20.033213 0.964539 1.212842 -0.0 1e-06 -1e-06 -3.440389 0.788235 0.501656 -15.928189 -3.16731 2.999707 -6.338828 -1e-06 1e-06 -18.123449 3.648183 -4.905669 -3e-06 1e-06 -1e-06 16.866892 6.699835 14.705877 42.591789 2.281359 13.31466 -0.618192 49.625034 -0.029541 4.036225 0.602346 3.751041 2.243541 -5.255035 -3.180157 14.282887 -0.826595 6.952499 -3e-06 -12.690603 1e-06 15.756982 -18.069149 2.801467 1.665665 -1.95592 -2.878297 4.727796 -4.170587 4.993924 11.020524 3e-06 -1e-06 12.109049 -3.735714 -2.866781 -0.0 0.0 -0.0 1.291986 -1.92855 -1.498088 14.800122 0.567469 3.865604 14.242567 -1.341735 -6.660657 19.631962 0.143927 -0.648245 49.51096 -0.69497 -6.649725 0.353028 -1.51115 -0.031942 20.222786 3.684309 2.31663 18.78727 4e-06 -0.0 10.751625 -0.479868 1.397905 1e-06 2e-06 -0.0 3.273804 0.305948 -0.580111 21.486805 11.830373 2.266131 8.162924 1e-06 -1e-06 18.399076 -3.798986 -4.940576 3e-06 -1e-06 -0.0 10.974933 13.876082 1.987452 -0.119636 -0.267771 10.4187 -11.033774 0.700186 -4.742971 1.646327 -2.012439 0.58405 0.0 0.0 2e-06 -12.049537 -10.078648 4.906378 -0.018189 0.202027 8.196783 10.811128 -7.634966 -5.434281 -1.441059 0.966219 0.746479 0.0 1e-06 -1e-06 
0.0 0.0 0.0 0.0 -0.0 0.0 0.586881 98.684464 -0.517521 0.687342 -0.351626 -4.772826 -0.752317 0.084782 -1.848678 -0.821782 0.194159 -5.492498 -3.207866 -1.960261 13.552708 15.105827 -3.877408 7.072017 -1.288115 -2.618502 -3.739476 13.229247 -8.39406 -7.928785 7.7e-05 -2.2e-05 6e-06 -0.137421 0.181627 -0.014216 0.622656 -3.479655 -10.679829 -0.883844 3.836296 -10.711281 -19.025839 -3.65958 14.669685 -51.719715 -12.528859 19.405272 -0.010477 -24.103632 -0.041247 2.201701 -0.751656 -7.000206 -5.88211 9.861292 0.702589 -10.936876 -0.360574 7.156206 -2e-06 8.774829 -0.0 -15.835022 18.17741 6.265063 -1.844033 2.498506 -2.507278 -10.163605 4.678949 4.621109 -20.976032 -0.0 -1e-06 -21.226295 2.4517 -3.594004 2e-06 -5e-06 0.0 -1.362682 2.240799 -0.746324 -21.334923 0.584915 3.008322 -13.821219 -1e-06 -0.0 -23.887178 -0.249077 -0.839488 -60.350822 2.549671 -1.121782 -0.294025 1.679687 0.833256 -14.218215 0.093218 1.30058 -34.212067 -0.287559 0.967166 -20.03322 0.964537 1.21284 -1e-06 -1e-06 -1e-06 -3.44039 0.788235 0.501653 -15.928192 -3.167308 2.999707 -6.338829 0.0 -1e-06 -18.123457 3.648186 -4.905676 -3e-06 1e-06 -1e-06 17.006632 6.543316 14.874869 43.683205 1.979584 19.192774 -0.855737 47.164875 -0.254112 3.998379 2.610401 5.168167 2.243544 -5.25504 -3.180159 14.282901 -0.826598 6.952507 -1e-06 -12.69061 1e-06 15.922496 -18.056763 2.691684 1.665667 -1.955923 -2.878299 4.727804 -4.17059 4.993929 11.020535 1e-06 -2e-06 12.109059 -3.735719 -2.866783 0.0 -0.0 0.0 1.291986 -1.92855 -1.498089 14.800139 0.567466 3.865609 14.242582 -1.341737 -6.660661 19.631981 0.143924 -0.648247 49.627617 -0.701204 -6.699877 0.353029 -1.511152 -0.031938 20.222803 3.684308 2.316631 18.787287 2e-06 -2e-06 10.751634 -0.47987 1.397905 1e-06 2e-06 -1e-06 3.27381 0.305947 -0.580111 21.486828 11.830378 2.266132 8.162933 2e-06 -2e-06 18.399097 -3.798984 -4.940578 2e-06 -0.0 0.0 10.790286 13.560381 1.886274 -0.124743 -0.251523 10.065832 -11.002483 0.642605 -4.479838 1.647826 -1.993539 0.558608 -0.0 0.0 2e-06 -12.132382 -10.255107 4.884054 -0.01267 0.185196 8.266923 10.830875 -7.935072 -5.563634 -1.443171 0.954187 0.724337 -0.0 0.0 -1e-06 
0.0 0.0 0.0 0.0 -0.0 0.0 0.51165 98.70813 -0.588113 0.76756 0.114976 -4.708867 -0.733486 0.086233 -1.804572 -0.810413 0.182238 -5.488129 -3.084959 -1.938946 13.519163 14.760046 -3.711547 6.703396 -1.245276 -2.62557 -3.717248 13.090341 -8.525498 -8.027194 7.7e-05 -2.2e-05 6e-06 -0.135635 0.194607 -0.016132 0.627457 -3.471378 -10.670459 -0.885432 3.853833 -10.703639 -19.102545 -3.669961 14.663507 -51.652145 -12.76493 19.672194 -0.113981 -23.805061 0.004251 2.014458 -0.621294 -6.770568 -5.882106 9.861286 0.702589 -10.936873 -0.360577 7.156206 1e-06 8.774826 -2e-06 -15.866454 18.153494 6.239593 -1.844033 2.498505 -2.507278 -10.163602 4.678944 4.621107 -20.976027 -7e-06 3e-06 -21.226288 2.451694 -3.594 0.0 -6e-06 -0.0 -1.362681 2.240798 -0.746323 -21.334917 0.584907 3.008322 -13.821217 -5e-06 1e-06 -23.887177 -0.249081 -0.839481 -60.322956 2.550821 -1.185315 -0.294025 1.679688 0.833256 -14.21821 0.093212 1.30058 -34.212051 -0.287568 0.967173 -20.033215 0.964535 1.212846 -0.0 0.0 -0.0 -3.440389 0.788234 0.501654 -15.928189 -3.167313 2.999708 -6.338828 -2e-06 -1e-06 -18.123447 3.648183 -4.905671 -3e-06 0.0 -1e-06 17.198954 6.364952 15.085349 44.971821 1.849621 24.787376 -1.027575 44.63858 -0.386866 4.018361 4.563376 6.646647 2.243541 -5.255037 -3.180157 14.282892 -0.826593 6.952503 -5e-06 -12.690607 3e-06 16.07481 -18.044144 2.630648 1.665667 -1.955922 -2.878298 4.727799 -4.170589 4.993926 11.020528 4e-06 -1e-06 12.109053 -3.735715 -2.866784 0.0 0.0 -1e-06 1.291984 -1.92855 -1.49809 14.800131 0.567469 3.865607 14.242574 -1.341734 -6.660656 19.631969 0.143929 -0.648244 49.782791 -0.704117 -6.720663 0.353029 -1.511152 -0.03194 20.222797 3.684313 2.316629 18.787275 7e-06 0.0 10.751631 -0.479868 1.397906 1e-06 2e-06 -1e-06 3.273807 0.305948 -0.580111 21.486818 11.830381 2.266131 8.162928 1e-06 -0.0 18.399082 -3.798984 -4.940574 3e-06 -1e-06 -1e-06 10.644163 13.215357 1.768968 -0.125179 -0.239937 9.768967 -10.947627 0.587785 -4.261427 1.64758 -1.98023 0.533828 -0.0 0.0 2e-06 -12.187751 -10.488297 4.914744 -0.00565 0.179676 8.261978 10.859947 -8.198196 -5.685413 -1.444401 0.949809 0.716241 0.0 0.0 -1e-06 
0.0 0.0 0.0 0.0 -0.0 0.0 0.444601 98.730049 -0.647335 0.805368 0.540093 -4.659634 -0.706636 0.072238 -1.764126 -0.79451 0.179848 -5.48976 -2.914222 -1.892971 13.505218 14.464008 -3.594344 6.362987 -1.221014 -2.623461 -3.694013 12.927717 -8.660726 -8.108039 7.6e-05 -2.2e-05 6e-06 -0.13495 0.211869 -0.020197 0.623453 -3.460094 -10.662746 -0.880422 3.876966 -10.697763 -19.150888 -3.614424 14.672165 -51.627201 -13.043903 19.837366 -0.189109 -23.632952 0.033052 1.934428 -0.594637 -6.67574 -5.882108 9.861287 0.702591 -10.936873 -0.360574 7.156206 -0.0 8.774826 -0.0 -15.858824 18.131365 6.228641 -1.844033 2.498504 -2.507278 -10.163603 4.678947 4.621109 -20.97603 -3e-06 0.0 -21.22629 2.451698 -3.594002 1e-06 -5e-06 0.0 -1.362682 2.240799 -0.746325 -21.334921 0.58491 3.008321 -13.821218 -3e-06 -1e-06 -23.887178 -0.24908 -0.839484 -60.258095 2.551101 -1.222297 -0.294025 1.679687 0.833256 -14.218214 0.093216 1.300581 -34.212063 -0.287564 0.967166 -20.033218 0.964535 1.212841 -0.0 0.0 1e-06 -3.44039 0.788233 0.501655 -15.928191 -3.16731 2.999705 -6.338828 -1e-06 -0.0 -18.123455 3.648184 -4.905675 -3e-06 1e-06 -1e-06 17.447521 6.237845 15.333488 46.480705 1.871063 29.66927 -1.081209 41.840443 -0.417206 3.961984 6.172279 8.285565 2.243541 -5.255036 -3.180157 14.282888 -0.826595 6.9525 -3e-06 -12.690603 1e-06 16.194763 -18.020176 2.638756 1.665665 -1.955922 -2.878299 4.727798 -4.170588 4.993925 11.020524 3e-06 -2e-06 12.109052 -3.735715 -2.866784 -0.0 0.0 -2e-06 1.291986 -1.928549 -1.498089 14.800127 0.567467 3.865604 14.242569 -1.341735 -6.660656 19.631962 0.143926 -0.648246 49.966476 -0.708225 -6.686234 0.353029 -1.511151 -0.03194 20.222788 3.684309 2.316627 18.78727 6e-06 -3e-06 10.751626 -0.479867 1.397906 1e-06 2e-06 -1e-06 3.273807 0.305947 -0.580111 21.486809 11.830376 2.266129 8.162926 2e-06 -2e-06 18.399076 -3.798985 -4.940574 3e-06 -0.0 -2e-06 10.551453 12.897236 1.655734 -0.124526 -0.239526 9.538649 -10.89046 0.559542 -4.090537 1.647463 -1.976162 0.534345 -0.0 0.0 2e-06 -12.207193 -10.727324 4.997006 -0.002101 0.181043 8.17739 10.90559 -8.417341 -5.769548 -1.44576 0.949221 0.740571 0.0 0.0 -1e-06 
